
<svg width="213" height="111" viewBox="0 0 213 111" fill="none" xmlns="http://www.w3.org/2000/svg">
<line y1="17.5" x2="62" y2="17.5" stroke="black" stroke-width="3"/>
<line x1="149" y1="92.5" x2="211" y2="92.5" stroke="black" stroke-width="3"/>
<line x1="1.5" y1="19" x2="1.5" y2="93" stroke="black" stroke-width="3"/>
<line x1="211.5" y1="19" x2="211.5" y2="94" stroke="black" stroke-width="3"/>
<mask id="path-5-outside-1_0_1" maskUnits="userSpaceOnUse" x="13" y="31" width="186" height="50" fill="black">
<rect fill="white" x="13" y="31" width="186" height="50"/>
<path d="M26.6364 32.4545V79H14V32.4545H26.6364ZM30.705 79V32.4545H43.3414V51.2727H43.9777L57.9777 32.4545H72.705L56.9777 53.1818L73.0686 79H57.9777L47.5232 61.5455L43.3414 67V79H30.705ZM74.535 79V32.4545H108.08V42.6364H87.1714V50.6364H106.353V60.8182H87.1714V68.8182H107.99V79H74.535ZM122.337 79.5455C120.109 79.5455 118.14 79.1818 116.427 78.4545C114.731 77.7121 113.397 76.5909 112.427 75.0909C111.458 73.5909 110.973 71.6818 110.973 69.3636C110.973 67.4545 111.299 65.8258 111.95 64.4773C112.602 63.1136 113.511 62 114.677 61.1364C115.844 60.2727 117.2 59.6136 118.746 59.1591C120.306 58.7045 121.988 58.4091 123.791 58.2727C125.746 58.1212 127.314 57.9394 128.496 57.7273C129.693 57.5 130.556 57.1894 131.087 56.7955C131.617 56.3864 131.882 55.8485 131.882 55.1818V55.0909C131.882 54.1818 131.534 53.4848 130.837 53C130.14 52.5152 129.246 52.2727 128.155 52.2727C126.958 52.2727 125.981 52.5379 125.223 53.0682C124.481 53.5833 124.034 54.3788 123.882 55.4545H112.337C112.488 53.3333 113.162 51.3788 114.359 49.5909C115.571 47.7879 117.337 46.3485 119.655 45.2727C121.973 44.1818 124.867 43.6364 128.337 43.6364C130.837 43.6364 133.079 43.9318 135.064 44.5227C137.049 45.0985 138.738 45.9091 140.132 46.9545C141.526 47.9848 142.587 49.197 143.314 50.5909C144.056 51.9697 144.427 53.4697 144.427 55.0909V79H132.7V74.0909H132.427C131.731 75.3939 130.882 76.447 129.882 77.25C128.897 78.053 127.768 78.6364 126.496 79C125.238 79.3636 123.852 79.5455 122.337 79.5455ZM126.427 71.6364C127.382 71.6364 128.276 71.4394 129.109 71.0455C129.958 70.6515 130.647 70.0833 131.177 69.3409C131.708 68.5985 131.973 67.697 131.973 66.6364V63.7273C131.64 63.8636 131.284 63.9924 130.905 64.1136C130.541 64.2348 130.147 64.3485 129.723 64.4545C129.314 64.5606 128.874 64.6591 128.405 64.75C127.95 64.8409 127.473 64.9242 126.973 65C126.003 65.1515 125.208 65.4015 124.587 65.75C123.981 66.0833 123.526 66.5 123.223 67C122.935 67.4848 122.791 68.0303 122.791 68.6364C122.791 69.6061 123.132 70.3485 123.814 70.8636C124.496 71.3788 125.367 71.6364 126.427 71.6364ZM148.502 79V44.0909H160.684V50.7273H161.047C161.684 48.2727 162.691 46.4773 164.07 45.3409C165.464 44.2045 167.093 43.6364 168.956 43.6364C169.502 43.6364 170.04 43.6818 170.57 43.7727C171.115 43.8485 171.638 43.9621 172.138 44.1136V54.8182C171.517 54.6061 170.752 54.447 169.843 54.3409C168.934 54.2348 168.153 54.1818 167.502 54.1818C166.275 54.1818 165.168 54.4621 164.184 55.0227C163.214 55.5682 162.449 56.3409 161.888 57.3409C161.328 58.3258 161.047 59.4848 161.047 60.8182V79H148.502ZM196.587 44.0909V53.1818H173.587V44.0909H196.587ZM178.042 35.7273H190.587V67.7727C190.587 68.2576 190.671 68.6667 190.837 69C191.004 69.3182 191.262 69.5606 191.61 69.7273C191.959 69.8788 192.406 69.9545 192.951 69.9545C193.33 69.9545 193.769 69.9091 194.269 69.8182C194.784 69.7273 195.163 69.6515 195.406 69.5909L197.224 78.4091C196.663 78.5758 195.86 78.7803 194.815 79.0227C193.784 79.2652 192.557 79.4242 191.133 79.5C188.254 79.6515 185.837 79.3561 183.883 78.6136C181.928 77.8561 180.459 76.6667 179.474 75.0455C178.489 73.4242 178.012 71.3939 178.042 68.9545V35.7273Z"/>
</mask>
<path d="M26.6364 32.4545V79H14V32.4545H26.6364ZM30.705 79V32.4545H43.3414V51.2727H43.9777L57.9777 32.4545H72.705L56.9777 53.1818L73.0686 79H57.9777L47.5232 61.5455L43.3414 67V79H30.705ZM74.535 79V32.4545H108.08V42.6364H87.1714V50.6364H106.353V60.8182H87.1714V68.8182H107.99V79H74.535ZM122.337 79.5455C120.109 79.5455 118.14 79.1818 116.427 78.4545C114.731 77.7121 113.397 76.5909 112.427 75.0909C111.458 73.5909 110.973 71.6818 110.973 69.3636C110.973 67.4545 111.299 65.8258 111.95 64.4773C112.602 63.1136 113.511 62 114.677 61.1364C115.844 60.2727 117.2 59.6136 118.746 59.1591C120.306 58.7045 121.988 58.4091 123.791 58.2727C125.746 58.1212 127.314 57.9394 128.496 57.7273C129.693 57.5 130.556 57.1894 131.087 56.7955C131.617 56.3864 131.882 55.8485 131.882 55.1818V55.0909C131.882 54.1818 131.534 53.4848 130.837 53C130.14 52.5152 129.246 52.2727 128.155 52.2727C126.958 52.2727 125.981 52.5379 125.223 53.0682C124.481 53.5833 124.034 54.3788 123.882 55.4545H112.337C112.488 53.3333 113.162 51.3788 114.359 49.5909C115.571 47.7879 117.337 46.3485 119.655 45.2727C121.973 44.1818 124.867 43.6364 128.337 43.6364C130.837 43.6364 133.079 43.9318 135.064 44.5227C137.049 45.0985 138.738 45.9091 140.132 46.9545C141.526 47.9848 142.587 49.197 143.314 50.5909C144.056 51.9697 144.427 53.4697 144.427 55.0909V79H132.7V74.0909H132.427C131.731 75.3939 130.882 76.447 129.882 77.25C128.897 78.053 127.768 78.6364 126.496 79C125.238 79.3636 123.852 79.5455 122.337 79.5455ZM126.427 71.6364C127.382 71.6364 128.276 71.4394 129.109 71.0455C129.958 70.6515 130.647 70.0833 131.177 69.3409C131.708 68.5985 131.973 67.697 131.973 66.6364V63.7273C131.64 63.8636 131.284 63.9924 130.905 64.1136C130.541 64.2348 130.147 64.3485 129.723 64.4545C129.314 64.5606 128.874 64.6591 128.405 64.75C127.95 64.8409 127.473 64.9242 126.973 65C126.003 65.1515 125.208 65.4015 124.587 65.75C123.981 66.0833 123.526 66.5 123.223 67C122.935 67.4848 122.791 68.0303 122.791 68.6364C122.791 69.6061 123.132 70.3485 123.814 70.8636C124.496 71.3788 125.367 71.6364 126.427 71.6364ZM148.502 79V44.0909H160.684V50.7273H161.047C161.684 48.2727 162.691 46.4773 164.07 45.3409C165.464 44.2045 167.093 43.6364 168.956 43.6364C169.502 43.6364 170.04 43.6818 170.57 43.7727C171.115 43.8485 171.638 43.9621 172.138 44.1136V54.8182C171.517 54.6061 170.752 54.447 169.843 54.3409C168.934 54.2348 168.153 54.1818 167.502 54.1818C166.275 54.1818 165.168 54.4621 164.184 55.0227C163.214 55.5682 162.449 56.3409 161.888 57.3409C161.328 58.3258 161.047 59.4848 161.047 60.8182V79H148.502ZM196.587 44.0909V53.1818H173.587V44.0909H196.587ZM178.042 35.7273H190.587V67.7727C190.587 68.2576 190.671 68.6667 190.837 69C191.004 69.3182 191.262 69.5606 191.61 69.7273C191.959 69.8788 192.406 69.9545 192.951 69.9545C193.33 69.9545 193.769 69.9091 194.269 69.8182C194.784 69.7273 195.163 69.6515 195.406 69.5909L197.224 78.4091C196.663 78.5758 195.86 78.7803 194.815 79.0227C193.784 79.2652 192.557 79.4242 191.133 79.5C188.254 79.6515 185.837 79.3561 183.883 78.6136C181.928 77.8561 180.459 76.6667 179.474 75.0455C178.489 73.4242 178.012 71.3939 178.042 68.9545V35.7273Z" fill="black"/>
<path d="M26.6364 32.4545H27.6364V31.4545H26.6364V32.4545ZM26.6364 79V80H27.6364V79H26.6364ZM14 79H13V80H14V79ZM14 32.4545V31.4545H13V32.4545H14ZM26.6364 32.4545H25.6364V79H26.6364H27.6364V32.4545H26.6364ZM26.6364 79V78H14V79V80H26.6364V79ZM14 79H15V32.4545H14H13V79H14ZM14 32.4545V33.4545H26.6364V32.4545V31.4545H14V32.4545ZM30.705 79H29.705V80H30.705V79ZM30.705 32.4545V31.4545H29.705V32.4545H30.705ZM43.3414 32.4545H44.3414V31.4545H43.3414V32.4545ZM43.3414 51.2727H42.3414V52.2727H43.3414V51.2727ZM43.9777 51.2727V52.2727H44.4802L44.78 51.8696L43.9777 51.2727ZM57.9777 32.4545V31.4545H57.4753L57.1754 31.8576L57.9777 32.4545ZM72.705 32.4545L73.5016 33.059L74.7191 31.4545H72.705V32.4545ZM56.9777 53.1818L56.1811 52.5774L55.7647 53.1261L56.1291 53.7107L56.9777 53.1818ZM73.0686 79V80H74.8702L73.9173 78.4711L73.0686 79ZM57.9777 79L57.1198 79.5138L57.411 80H57.9777V79ZM47.5232 61.5455L48.3811 61.0316L47.6249 59.7692L46.7296 60.937L47.5232 61.5455ZM43.3414 67L42.5478 66.3916L42.3414 66.6608V67H43.3414ZM43.3414 79V80H44.3414V79H43.3414ZM30.705 79H31.705V32.4545H30.705H29.705V79H30.705ZM30.705 32.4545V33.4545H43.3414V32.4545V31.4545H30.705V32.4545ZM43.3414 32.4545H42.3414V51.2727H43.3414H44.3414V32.4545H43.3414ZM43.3414 51.2727V52.2727H43.9777V51.2727V50.2727H43.3414V51.2727ZM43.9777 51.2727L44.78 51.8696L58.78 33.0514L57.9777 32.4545L57.1754 31.8576L43.1754 50.6758L43.9777 51.2727ZM57.9777 32.4545V33.4545H72.705V32.4545V31.4545H57.9777V32.4545ZM72.705 32.4545L71.9084 31.8501L56.1811 52.5774L56.9777 53.1818L57.7744 53.7863L73.5016 33.059L72.705 32.4545ZM56.9777 53.1818L56.1291 53.7107L72.22 79.5289L73.0686 79L73.9173 78.4711L57.8264 52.6529L56.9777 53.1818ZM73.0686 79V78H57.9777V79V80H73.0686V79ZM57.9777 79L58.8356 78.4862L48.3811 61.0316L47.5232 61.5455L46.6653 62.0593L57.1198 79.5138L57.9777 79ZM47.5232 61.5455L46.7296 60.937L42.5478 66.3916L43.3414 67L44.135 67.6084L48.3168 62.1539L47.5232 61.5455ZM43.3414 67H42.3414V79H43.3414H44.3414V67H43.3414ZM43.3414 79V78H30.705V79V80H43.3414V79ZM74.535 79H73.535V80H74.535V79ZM74.535 32.4545V31.4545H73.535V32.4545H74.535ZM108.08 32.4545H109.08V31.4545H108.08V32.4545ZM108.08 42.6364V43.6364H109.08V42.6364H108.08ZM87.1714 42.6364V41.6364H86.1714V42.6364H87.1714ZM87.1714 50.6364H86.1714V51.6364H87.1714V50.6364ZM106.353 50.6364H107.353V49.6364H106.353V50.6364ZM106.353 60.8182V61.8182H107.353V60.8182H106.353ZM87.1714 60.8182V59.8182H86.1714V60.8182H87.1714ZM87.1714 68.8182H86.1714V69.8182H87.1714V68.8182ZM107.99 68.8182H108.99V67.8182H107.99V68.8182ZM107.99 79V80H108.99V79H107.99ZM74.535 79H75.535V32.4545H74.535H73.535V79H74.535ZM74.535 32.4545V33.4545H108.08V32.4545V31.4545H74.535V32.4545ZM108.08 32.4545H107.08V42.6364H108.08H109.08V32.4545H108.08ZM108.08 42.6364V41.6364H87.1714V42.6364V43.6364H108.08V42.6364ZM87.1714 42.6364H86.1714V50.6364H87.1714H88.1714V42.6364H87.1714ZM87.1714 50.6364V51.6364H106.353V50.6364V49.6364H87.1714V50.6364ZM106.353 50.6364H105.353V60.8182H106.353H107.353V50.6364H106.353ZM106.353 60.8182V59.8182H87.1714V60.8182V61.8182H106.353V60.8182ZM87.1714 60.8182H86.1714V68.8182H87.1714H88.1714V60.8182H87.1714ZM87.1714 68.8182V69.8182H107.99V68.8182V67.8182H87.1714V68.8182ZM107.99 68.8182H106.99V79H107.99H108.99V68.8182H107.99ZM107.99 79V78H74.535V79V80H107.99V79ZM116.427 78.4545L116.027 79.3708L116.037 79.3749L116.427 78.4545ZM112.427 75.0909L111.588 75.6338L112.427 75.0909ZM111.95 64.4773L112.851 64.9123L112.853 64.9084L111.95 64.4773ZM114.677 61.1364L115.272 61.9401L114.677 61.1364ZM118.746 59.1591L118.466 58.199L118.464 58.1997L118.746 59.1591ZM123.791 58.2727L123.867 59.2699L123.868 59.2697L123.791 58.2727ZM128.496 57.7273L128.672 58.7116L128.682 58.7097L128.496 57.7273ZM131.087 56.7955L131.683 57.5982L131.69 57.5928L131.697 57.5872L131.087 56.7955ZM130.837 53L130.266 53.8209L130.837 53ZM125.223 53.0682L125.793 53.8898L125.796 53.8874L125.223 53.0682ZM123.882 55.4545V56.4545H124.751L124.872 55.594L123.882 55.4545ZM112.337 55.4545L111.339 55.3833L111.263 56.4545H112.337V55.4545ZM114.359 49.5909L113.529 49.033L113.528 49.0346L114.359 49.5909ZM119.655 45.2727L120.076 46.1798L120.081 46.1775L119.655 45.2727ZM135.064 44.5227L134.779 45.4812L134.785 45.4831L135.064 44.5227ZM140.132 46.9545L139.532 47.7546L139.538 47.7587L140.132 46.9545ZM143.314 50.5909L142.427 51.0535L142.433 51.065L143.314 50.5909ZM144.427 79V80H145.427V79H144.427ZM132.7 79H131.7V80H132.7V79ZM132.7 74.0909H133.7V73.0909H132.7V74.0909ZM132.427 74.0909V73.0909H131.828L131.546 73.6193L132.427 74.0909ZM129.882 77.25L129.256 76.4703L129.25 76.475L129.882 77.25ZM126.496 79L126.221 78.0385L126.218 78.0394L126.496 79ZM129.109 71.0455L128.688 70.1384L128.682 70.1414L129.109 71.0455ZM131.177 69.3409L130.364 68.7597L131.177 69.3409ZM131.973 63.7273H132.973V62.2377L131.594 62.8017L131.973 63.7273ZM130.905 64.1136L130.6 63.1611L130.589 63.165L130.905 64.1136ZM129.723 64.4545L129.48 63.4844L129.472 63.4865L129.723 64.4545ZM128.405 64.75L128.215 63.7682L128.209 63.7694L128.405 64.75ZM126.973 65L126.823 64.0113L126.819 64.012L126.973 65ZM124.587 65.75L125.069 66.6262L125.076 66.6221L124.587 65.75ZM123.223 67L122.368 66.4817L122.363 66.4895L123.223 67ZM123.814 70.8636L124.417 70.0658L123.814 70.8636ZM122.337 79.5455V78.5455C120.218 78.5455 118.385 78.1996 116.818 77.5341L116.427 78.4545L116.037 79.3749C117.894 80.164 120.001 80.5455 122.337 80.5455V79.5455ZM116.427 78.4545L116.828 77.5384C115.304 76.8715 114.126 75.8769 113.267 74.548L112.427 75.0909L111.588 75.6338C112.668 77.3049 114.157 78.5527 116.027 79.3707L116.427 78.4545ZM112.427 75.0909L113.267 74.548C112.429 73.2515 111.973 71.5458 111.973 69.3636H110.973H109.973C109.973 71.8179 110.486 73.9303 111.588 75.6338L112.427 75.0909ZM110.973 69.3636H111.973C111.973 67.5651 112.28 66.0931 112.851 64.9123L111.95 64.4773L111.05 64.0422C110.317 65.5584 109.973 67.344 109.973 69.3636H110.973ZM111.95 64.4773L112.853 64.9084C113.437 63.6859 114.243 62.7024 115.272 61.9401L114.677 61.1364L114.083 60.3326C112.779 61.2976 111.767 62.5414 111.048 64.0462L111.95 64.4773ZM114.677 61.1364L115.272 61.9401C116.335 61.1535 117.583 60.5435 119.028 60.1185L118.746 59.1591L118.464 58.1997C116.818 58.6838 115.353 59.3919 114.083 60.3326L114.677 61.1364ZM118.746 59.1591L119.025 60.1192C120.512 59.6861 122.125 59.4016 123.867 59.2699L123.791 58.2727L123.716 57.2756C121.851 57.4166 120.1 57.723 118.466 58.199L118.746 59.1591ZM123.791 58.2727L123.868 59.2697C125.838 59.117 127.444 58.9321 128.672 58.7115L128.496 57.7273L128.319 56.743C127.184 56.9467 125.653 57.1254 123.714 57.2757L123.791 58.2727ZM128.496 57.7273L128.682 58.7097C129.923 58.4742 130.968 58.1295 131.683 57.5982L131.087 56.7955L130.49 55.9927C130.145 56.2493 129.463 56.5258 128.309 56.7448L128.496 57.7273ZM131.087 56.7955L131.697 57.5872C132.472 56.9898 132.882 56.1602 132.882 55.1818H131.882H130.882C130.882 55.5368 130.762 55.7829 130.476 56.0037L131.087 56.7955ZM131.882 55.1818H132.882V55.0909H131.882H130.882V55.1818H131.882ZM131.882 55.0909H132.882C132.882 53.8818 132.395 52.866 131.408 52.1791L130.837 53L130.266 53.8209C130.672 54.1037 130.882 54.4819 130.882 55.0909H131.882ZM130.837 53L131.408 52.1791C130.501 51.5484 129.392 51.2727 128.155 51.2727V52.2727V53.2727C129.1 53.2727 129.778 53.4819 130.266 53.8209L130.837 53ZM128.155 52.2727V51.2727C126.813 51.2727 125.618 51.5707 124.649 52.249L125.223 53.0682L125.796 53.8874C126.343 53.5051 127.103 53.2727 128.155 53.2727V52.2727ZM125.223 53.0682L124.653 52.2466C123.636 52.9524 123.074 54.0238 122.892 55.3151L123.882 55.4545L124.872 55.594C124.993 54.7338 125.325 54.2143 125.793 53.8898L125.223 53.0682ZM123.882 55.4545V54.4545H112.337V55.4545V56.4545H123.882V55.4545ZM112.337 55.4545L113.334 55.5258C113.473 53.5801 114.089 51.7924 115.19 50.1472L114.359 49.5909L113.528 49.0346C112.236 50.9652 111.503 53.0865 111.339 55.3833L112.337 55.4545ZM114.359 49.5909L115.189 50.1488C116.283 48.5223 117.894 47.1924 120.076 46.1798L119.655 45.2727L119.234 44.3656C116.78 45.5046 114.86 47.0535 113.529 49.033L114.359 49.5909ZM119.655 45.2727L120.081 46.1775C122.227 45.1674 124.965 44.6364 128.337 44.6364V43.6364V42.6364C124.769 42.6364 121.719 43.1962 119.229 44.3679L119.655 45.2727ZM128.337 43.6364V44.6364C130.759 44.6364 132.903 44.9228 134.779 45.4812L135.064 44.5227L135.349 43.5643C133.255 42.9408 130.914 42.6364 128.337 42.6364V43.6364ZM135.064 44.5227L134.785 45.4831C136.675 46.0314 138.251 46.7936 139.532 47.7545L140.132 46.9545L140.732 46.1545C139.225 45.0246 137.422 44.1656 135.342 43.5623L135.064 44.5227ZM140.132 46.9545L139.538 47.7587C140.822 48.7082 141.777 49.8074 142.427 51.0535L143.314 50.5909L144.2 50.1283C143.396 48.5865 142.23 47.2615 140.726 46.1504L140.132 46.9545ZM143.314 50.5909L142.433 51.065C143.095 52.2928 143.427 53.6291 143.427 55.0909H144.427H145.427C145.427 53.3103 145.018 51.6465 144.194 50.1168L143.314 50.5909ZM144.427 55.0909H143.427V79H144.427H145.427V55.0909H144.427ZM144.427 79V78H132.7V79V80H144.427V79ZM132.7 79H133.7V74.0909H132.7H131.7V79H132.7ZM132.7 74.0909V73.0909H132.427V74.0909V75.0909H132.7V74.0909ZM132.427 74.0909L131.546 73.6193C130.903 74.8214 130.136 75.7635 129.256 76.4703L129.882 77.25L130.508 78.0297C131.628 77.1304 132.558 75.9665 133.309 74.5626L132.427 74.0909ZM129.882 77.25L129.25 76.475C128.375 77.1887 127.369 77.7105 126.221 78.0385L126.496 79L126.77 79.9615C128.168 79.5622 129.42 78.9174 130.514 78.025L129.882 77.25ZM126.496 79L126.218 78.0394C125.063 78.3732 123.772 78.5455 122.337 78.5455V79.5455V80.5455C123.931 80.5455 125.413 80.3541 126.773 79.9606L126.496 79ZM126.427 71.6364V72.6364C127.524 72.6364 128.565 72.4089 129.537 71.9495L129.109 71.0455L128.682 70.1414C127.987 70.4699 127.24 70.6364 126.427 70.6364V71.6364ZM129.109 71.0455L129.53 71.9525C130.532 71.4876 131.358 70.809 131.991 69.9221L131.177 69.3409L130.364 68.7597C129.937 69.3577 129.384 69.8154 128.688 70.1384L129.109 71.0455ZM131.177 69.3409L131.991 69.9221C132.662 68.9837 132.973 67.8704 132.973 66.6364H131.973H130.973C130.973 67.5235 130.754 68.2132 130.364 68.7597L131.177 69.3409ZM131.973 66.6364H132.973V63.7273H131.973H130.973V66.6364H131.973ZM131.973 63.7273L131.594 62.8017C131.288 62.9272 130.956 63.0472 130.6 63.1612L130.905 64.1136L131.21 65.0661C131.611 64.9377 131.992 64.8001 132.352 64.6528L131.973 63.7273ZM130.905 64.1136L130.589 63.165C130.252 63.277 129.883 63.3837 129.48 63.4844L129.723 64.4545L129.965 65.4247C130.411 65.3133 130.83 65.1927 131.221 65.0623L130.905 64.1136ZM129.723 64.4545L129.472 63.4865C129.085 63.5868 128.667 63.6808 128.215 63.7682L128.405 64.75L128.595 65.7318C129.082 65.6374 129.542 65.5345 129.974 65.4225L129.723 64.4545ZM128.405 64.75L128.209 63.7694C127.771 63.857 127.309 63.9377 126.823 64.0113L126.973 65L127.123 65.9887C127.637 65.9108 128.13 65.8248 128.601 65.7306L128.405 64.75ZM126.973 65L126.819 64.012C125.773 64.1754 124.853 64.4537 124.097 64.8779L124.587 65.75L125.076 66.6221C125.562 66.3494 126.234 66.1276 127.127 65.988L126.973 65ZM124.587 65.75L124.105 64.8738C123.373 65.2761 122.777 65.8064 122.368 66.4817L123.223 67L124.078 67.5183C124.275 67.1936 124.588 66.8906 125.069 66.6262L124.587 65.75ZM123.223 67L122.363 66.4895C121.977 67.1404 121.791 67.8646 121.791 68.6364H122.791H123.791C123.791 68.1961 123.894 67.8293 124.083 67.5105L123.223 67ZM122.791 68.6364H121.791C121.791 69.8713 122.243 70.9301 123.211 71.6615L123.814 70.8636L124.417 70.0658C124.021 69.7669 123.791 69.3408 123.791 68.6364H122.791ZM123.814 70.8636L123.211 71.6615C124.105 72.3367 125.203 72.6364 126.427 72.6364V71.6364V70.6364C125.531 70.6364 124.887 70.4208 124.417 70.0658L123.814 70.8636ZM148.502 79H147.502V80H148.502V79ZM148.502 44.0909V43.0909H147.502V44.0909H148.502ZM160.684 44.0909H161.684V43.0909H160.684V44.0909ZM160.684 50.7273H159.684V51.7273H160.684V50.7273ZM161.047 50.7273V51.7273H161.821L162.015 50.9782L161.047 50.7273ZM164.07 45.3409L163.438 44.5658L163.434 44.5692L164.07 45.3409ZM170.57 43.7727L170.401 44.7584L170.417 44.761L170.432 44.7632L170.57 43.7727ZM172.138 44.1136H173.138V43.3718L172.428 43.1566L172.138 44.1136ZM172.138 54.8182L171.815 55.7645L173.138 56.2163V54.8182H172.138ZM169.843 54.3409L169.959 53.3476L169.843 54.3409ZM164.184 55.0227L164.674 55.8943L164.678 55.8918L164.184 55.0227ZM161.888 57.3409L162.757 57.8356L162.76 57.8299L161.888 57.3409ZM161.047 79V80H162.047V79H161.047ZM148.502 79H149.502V44.0909H148.502H147.502V79H148.502ZM148.502 44.0909V45.0909H160.684V44.0909V43.0909H148.502V44.0909ZM160.684 44.0909H159.684V50.7273H160.684H161.684V44.0909H160.684ZM160.684 50.7273V51.7273H161.047V50.7273V49.7273H160.684V50.7273ZM161.047 50.7273L162.015 50.9782C162.62 48.6451 163.546 47.069 164.706 46.1126L164.07 45.3409L163.434 44.5692C161.837 45.8855 160.747 47.9003 160.079 50.4763L161.047 50.7273ZM164.07 45.3409L164.702 46.116C165.91 45.1307 167.314 44.6364 168.956 44.6364V43.6364V42.6364C166.872 42.6364 165.017 43.2784 163.438 44.5658L164.07 45.3409ZM168.956 43.6364V44.6364C169.446 44.6364 169.927 44.6771 170.401 44.7584L170.57 43.7727L170.739 42.7871C170.152 42.6865 169.558 42.6364 168.956 42.6364V43.6364ZM170.57 43.7727L170.432 44.7632C170.929 44.8322 171.401 44.935 171.848 45.0707L172.138 44.1136L172.428 43.1566C171.876 42.9892 171.302 42.8648 170.708 42.7822L170.57 43.7727ZM172.138 44.1136H171.138V54.8182H172.138H173.138V44.1136H172.138ZM172.138 54.8182L172.461 53.8718C171.752 53.6298 170.913 53.459 169.959 53.3476L169.843 54.3409L169.727 55.3342C170.591 55.435 171.282 55.5824 171.815 55.7645L172.138 54.8182ZM169.843 54.3409L169.959 53.3476C169.025 53.2387 168.204 53.1818 167.502 53.1818V54.1818V55.1818C168.103 55.1818 168.842 55.231 169.727 55.3342L169.843 54.3409ZM167.502 54.1818V53.1818C166.116 53.1818 164.837 53.5002 163.689 54.1537L164.184 55.0227L164.678 55.8918C165.5 55.424 166.433 55.1818 167.502 55.1818V54.1818ZM164.184 55.0227L163.693 54.1511C162.559 54.7895 161.663 55.6968 161.016 56.8519L161.888 57.3409L162.76 57.8299C163.234 56.985 163.869 56.3469 164.674 55.8943L164.184 55.0227ZM161.888 57.3409L161.019 56.8462C160.359 58.0065 160.047 59.3422 160.047 60.8182H161.047H162.047C162.047 59.6275 162.297 58.645 162.757 57.8356L161.888 57.3409ZM161.047 60.8182H160.047V79H161.047H162.047V60.8182H161.047ZM161.047 79V78H148.502V79V80H161.047V79ZM196.587 44.0909H197.587V43.0909H196.587V44.0909ZM196.587 53.1818V54.1818H197.587V53.1818H196.587ZM173.587 53.1818H172.587V54.1818H173.587V53.1818ZM173.587 44.0909V43.0909H172.587V44.0909H173.587ZM178.042 35.7273V34.7273H177.042V35.7273H178.042ZM190.587 35.7273H191.587V34.7273H190.587V35.7273ZM190.837 69L189.943 69.4472L189.947 69.4557L189.952 69.464L190.837 69ZM191.61 69.7273L191.179 70.6294L191.195 70.6372L191.212 70.6443L191.61 69.7273ZM194.269 69.8182L194.096 68.8334L194.09 68.8343L194.269 69.8182ZM195.406 69.5909L196.385 69.389L196.175 68.3679L195.163 68.6208L195.406 69.5909ZM197.224 78.4091L197.509 79.3676L198.389 79.1061L198.203 78.2072L197.224 78.4091ZM194.815 79.0227L194.589 78.0486L194.586 78.0493L194.815 79.0227ZM191.133 79.5L191.186 80.4986L191.186 80.4986L191.133 79.5ZM183.883 78.6136L183.522 79.5461L183.528 79.5485L183.883 78.6136ZM179.474 75.0455L178.619 75.5646L179.474 75.0455ZM178.042 68.9545L179.042 68.967V68.9545H178.042ZM196.587 44.0909H195.587V53.1818H196.587H197.587V44.0909H196.587ZM196.587 53.1818V52.1818H173.587V53.1818V54.1818H196.587V53.1818ZM173.587 53.1818H174.587V44.0909H173.587H172.587V53.1818H173.587ZM173.587 44.0909V45.0909H196.587V44.0909V43.0909H173.587V44.0909ZM178.042 35.7273V36.7273H190.587V35.7273V34.7273H178.042V35.7273ZM190.587 35.7273H189.587V67.7727H190.587H191.587V35.7273H190.587ZM190.587 67.7727H189.587C189.587 68.3678 189.689 68.9397 189.943 69.4472L190.837 69L191.732 68.5528C191.652 68.3937 191.587 68.1474 191.587 67.7727H190.587ZM190.837 69L189.952 69.464C190.226 69.9882 190.651 70.377 191.179 70.6294L191.61 69.7273L192.042 68.8251C191.872 68.7442 191.782 68.6481 191.723 68.536L190.837 69ZM191.61 69.7273L191.212 70.6443C191.728 70.8689 192.324 70.9545 192.951 70.9545V69.9545V68.9545C192.488 68.9545 192.189 68.8886 192.009 68.8102L191.61 69.7273ZM192.951 69.9545V70.9545C193.406 70.9545 193.908 70.9003 194.448 70.8021L194.269 69.8182L194.09 68.8343C193.631 68.9179 193.254 68.9545 192.951 68.9545V69.9545ZM194.269 69.8182L194.443 70.803C194.962 70.7114 195.37 70.6307 195.648 70.5611L195.406 69.5909L195.163 68.6208C194.957 68.6724 194.607 68.7432 194.096 68.8334L194.269 69.8182ZM195.406 69.5909L194.426 69.7928L196.244 78.611L197.224 78.4091L198.203 78.2072L196.385 69.389L195.406 69.5909ZM197.224 78.4091L196.939 77.4506C196.408 77.6085 195.628 77.8076 194.589 78.0486L194.815 79.0227L195.041 79.9969C196.093 79.753 196.919 79.543 197.509 79.3676L197.224 78.4091ZM194.815 79.0227L194.586 78.0493C193.629 78.2744 192.464 78.4278 191.08 78.5014L191.133 79.5L191.186 80.4986C192.651 80.4207 193.94 80.2559 195.044 79.9961L194.815 79.0227ZM191.133 79.5L191.08 78.5014C188.291 78.6482 186.023 78.3569 184.238 77.6788L183.883 78.6136L183.528 79.5485C185.652 80.3552 188.217 80.6548 191.186 80.4986L191.133 79.5ZM183.883 78.6136L184.244 77.6812C182.472 76.9944 181.187 75.9393 180.329 74.5263L179.474 75.0455L178.619 75.5646C179.731 77.3941 181.384 78.7177 183.522 79.5461L183.883 78.6136ZM179.474 75.0455L180.329 74.5263C179.465 73.105 179.013 71.2719 179.042 68.967L178.042 68.9545L177.042 68.9421C177.01 71.516 177.513 73.7435 178.619 75.5646L179.474 75.0455ZM178.042 68.9545H179.042V35.7273H178.042H177.042V68.9545H178.042Z" fill="black" mask="url(#path-5-outside-1_0_1)"/>
</svg>
